<svg xmlns="http://www.w3.org/2000/svg" width="1200" height="720" viewBox="0 0 1200 720">
<defs><linearGradient id="g" x1="0" x2="1"><stop stop-color="#8f0712"/><stop offset="1" stop-color="#ef233c"/></linearGradient><filter id="s"><feDropShadow dx="0" dy="18" stdDeviation="20" flood-opacity=".25"/></filter></defs>
<rect width="1200" height="720" fill="#f6f7fb"/><rect width="1200" height="86" fill="#15151a"/><circle cx="48" cy="43" r="18" fill="#ef233c"/><text x="82" y="53" fill="white" font-family="Arial" font-size="25" font-weight="700">TRAC Certification &amp; Event System</text>
<rect x="28" y="118" width="220" height="570" rx="22" fill="#111216"/><g fill="#fff" font-family="Arial" font-size="17"><text x="60" y="174">Dashboard</text><text x="60" y="225">Appointments</text><text x="60" y="276">Events</text><text x="60" y="327">Certificates</text><text x="60" y="378">Analytics</text></g>
<rect x="278" y="118" width="894" height="570" rx="24" fill="white" filter="url(#s)"/><text x="318" y="175" fill="#1d1d24" font-family="Arial" font-size="30" font-weight="700">Operations overview</text>
<g><rect x="318" y="214" width="245" height="130" rx="18" fill="url(#g)"/><rect x="588" y="214" width="245" height="130" rx="18" fill="#202129"/><rect x="858" y="214" width="270" height="130" rx="18" fill="#f1f2f6"/></g>
<g fill="white" font-family="Arial"><text x="348" y="260" font-size="17">Verified certificates</text><text x="348" y="318" font-size="42" font-weight="700">1,248</text><text x="618" y="260" font-size="17">Upcoming events</text><text x="618" y="318" font-size="42" font-weight="700">18</text></g>
<g fill="#1d1d24" font-family="Arial"><text x="888" y="260" font-size="17">Approval rate</text><text x="888" y="318" font-size="42" font-weight="700">96%</text></g>
<rect x="318" y="378" width="520" height="260" rx="18" fill="#f6f7fb"/><polyline points="350,575 420,530 490,548 560,470 630,500 700,430 790,452" fill="none" stroke="#ef233c" stroke-width="12" stroke-linecap="round" stroke-linejoin="round"/><rect x="866" y="378" width="262" height="260" rx="18" fill="#f6f7fb"/><circle cx="997" cy="505" r="78" fill="none" stroke="#e7e8ee" stroke-width="28"/><path d="M997 427 A78 78 0 1 1 926 537" fill="none" stroke="#ef233c" stroke-width="28" stroke-linecap="round"/><text x="966" y="518" fill="#1d1d24" font-family="Arial" font-size="32" font-weight="700">78%</text>
</svg>
